<?xml version="1.0" encoding="utf-8"?>
<!-- Generator: Adobe Illustrator 18.1.1, SVG Export Plug-In . SVG Version: 6.00 Build 0)  -->
<svg version="1.1" xmlns="http://www.w3.org/2000/svg" xmlns:xlink="http://www.w3.org/1999/xlink" x="0px" y="0px" width="90px"
	 height="75px" viewBox="0 0 90 75" enable-background="new 0 0 90 75" xml:space="preserve">
<g id="Warstwa_1">
</g>
<g id="Warstwa_4">
</g>
<g id="Warstwa_3">
	<g id="EHQJxe_10_">
		<g>
			<path fill="#FFED33" d="M48.5,52.9c-0.1,0.1-0.2,0.2-0.3,0.4c-0.1,0.2-0.3,0.4-0.4,0.6c0,0.1-0.1,0.1-0.1,0
				c-0.1-0.1-0.2-0.1-0.3-0.2c-0.3-0.2-0.5-0.5-0.8-0.7c-0.3-0.3-0.6-0.5-0.9-0.8c-0.2-0.2-0.5-0.4-0.7-0.6c-0.1-0.1-0.1-0.1-0.2,0
				c-0.4,0.4-0.8,0.7-1.3,1.1c-0.4,0.4-0.8,0.7-1.2,1.1c0,0-0.1,0.1-0.1,0.1c-0.1,0-0.1,0-0.2,0c0,0-0.1-0.1-0.1-0.1
				c-0.2-0.2-0.3-0.5-0.5-0.7c0-0.1-0.1-0.1-0.1-0.1c0,0,0-0.1,0-0.1c-0.2-0.4-0.5-0.8-0.8-1.2c0,0-0.1,0-0.1,0
				c-0.1-0.3-0.3-0.5-0.4-0.8c0,0-0.1,0-0.1,0c0,0-0.1,0-0.1,0c-0.9,0.4-1.7,0.9-2.6,1.3c-0.1,0-0.1,0.1-0.2,0.1c0,0-0.1,0-0.1,0
				c-0.3,0.1-0.3,0.1-0.4-0.2c-0.2-0.7-0.5-1.5-0.7-2.2c0-0.1-0.1-0.2-0.1-0.3c0-0.3-0.1-0.5-0.2-0.7c0-0.1-0.1-0.1-0.1,0
				c-0.3,0.1-0.6,0.1-0.9,0.2c-0.5,0.1-0.9,0.2-1.4,0.3c-0.2,0.1-0.5,0.1-0.7,0.2c-0.1,0-0.2,0-0.3,0c-0.1,0-0.1,0-0.2,0
				c-0.1,0-0.1,0-0.1-0.1c0-0.1,0-0.2,0-0.2c0-0.2,0-0.3,0-0.5c-0.1-0.2,0-0.5-0.1-0.7c0-0.2,0-0.4,0-0.7c0-0.4,0-0.9-0.1-1.3
				c0-0.2,0-0.2-0.2-0.3c0,0,0,0,0,0c-0.6,0-1.1,0-1.7-0.1c0,0-0.1,0-0.1,0c-0.6-0.1-1.1-0.1-1.7-0.1c0-0.1,0-0.2,0-0.2
				c0.1-0.4,0.2-0.8,0.3-1.2c0-0.1,0-0.2,0-0.3c0,0,0-0.1,0-0.1c0.1-0.4,0.2-0.8,0.2-1.2c0-0.2,0.1-0.4,0.1-0.5c0-0.1,0-0.1-0.1-0.2
				c-0.1,0-0.1,0-0.2-0.1c-0.6-0.2-1.3-0.4-1.9-0.6c-0.4-0.1-0.9-0.3-1.3-0.4c0,0-0.1-0.1,0-0.1c0-0.1,0.1-0.2,0.1-0.2
				c0.3-0.7,0.7-1.4,1-2.1c0-0.1,0.1-0.2,0.1-0.3c0.2-0.2,0.2-0.4,0.3-0.6c0,0,0-0.1,0-0.1c-0.1,0-0.1-0.1-0.2-0.1
				c-0.8-0.5-1.6-1.1-2.4-1.6c-0.1,0-0.1-0.1-0.2-0.1l0,0c0,0,0,0-0.1,0c0,0-0.1,0-0.1-0.1c0,0,0-0.1,0-0.1c0,0,0-0.1,0.1-0.1
				c0.2-0.2,0.4-0.5,0.7-0.7c0.3-0.3,0.6-0.6,0.9-1c0.2-0.2,0.4-0.5,0.6-0.7c0-0.1,0.1-0.1,0.1-0.2c0-0.1,0-0.1,0-0.2
				c-0.1-0.1-0.1-0.2-0.2-0.3c-0.3-0.3-0.5-0.6-0.8-0.8c-0.3-0.3-0.5-0.6-0.7-0.9c-0.2-0.2-0.4-0.4-0.5-0.6c0,0-0.1-0.1-0.1-0.1
				c0-0.1,0-0.1,0-0.1c0.1-0.1,0.2-0.1,0.2-0.1c0.5-0.4,1.1-0.7,1.6-1.1c0.3-0.2,0.6-0.4,0.9-0.6c0,0,0.1-0.1,0.1-0.1
				c0.1-0.1,0.1-0.1,0-0.2c0-0.1-0.1-0.1-0.1-0.2c-0.3-0.7-0.7-1.4-1-2c-0.1-0.3-0.3-0.5-0.4-0.8c0-0.1-0.1-0.1-0.1-0.2
				c0-0.1,0-0.1,0.1-0.1c0,0,0.1,0,0.1,0c0.9-0.3,1.9-0.6,2.8-0.9c0.1,0,0.3-0.1,0.4-0.1c0.1,0,0.1-0.1,0.1-0.2
				c-0.1-0.7-0.3-1.4-0.4-2.1c-0.1-0.4-0.2-0.9-0.3-1.3c0,0,0-0.1,0-0.1c0,0,0-0.1,0.1-0.1c0,0,0.1,0,0.1,0c0.5,0,1-0.1,1.6-0.1
				c0.5,0,0.9-0.1,1.4-0.1c0.2,0,0.3,0,0.5,0c0.1,0,0.1,0,0.1-0.1c0-0.3,0.1-0.7,0.1-1c0-0.5,0.1-1,0.1-1.6c0.1-0.3,0-0.6,0.1-0.9
				c0-0.1,0.1-0.2,0.2-0.1c0.5,0.1,1,0.2,1.5,0.3c0.6,0.1,1.2,0.3,1.9,0.4c0.1,0,0.2,0,0.2-0.1c0.2-0.6,0.4-1.2,0.6-1.8
				c0.1-0.4,0.3-0.9,0.4-1.3c0-0.1,0-0.1,0.1-0.2c0,0,0.1-0.1,0.1,0c0.1,0,0.1,0.1,0.2,0.1c0.9,0.5,1.9,0.9,2.8,1.4
				c0.2,0.1,0.2,0.1,0.4-0.1c0.6-0.9,1.1-1.7,1.7-2.6c0.1-0.1,0.1-0.2,0.2-0.2c0,0,0.1,0,0.1,0c0,0,0.1,0,0.1,0.1
				c0.2,0.2,0.5,0.4,0.7,0.6c0.3,0.3,0.6,0.5,0.9,0.8c0.3,0.3,0.6,0.5,0.9,0.8c0,0,0.1,0.1,0.1,0.1c0.1,0.1,0.1,0.1,0.2,0
				c0.2-0.1,0.3-0.3,0.5-0.4c0.3-0.2,0.5-0.5,0.8-0.7c0.3-0.3,0.6-0.6,1-0.9c0.1-0.1,0.3-0.3,0.4-0.4c0.1-0.1,0.1-0.1,0.2,0
				c0,0,0,0,0,0c0,0,0,0,0.1,0.1c0,0.1,0.1,0.2,0.1,0.2c0.5,0.8,1.1,1.6,1.6,2.5c0,0,0.1,0.1,0.1,0.1c0,0.1,0.1,0.1,0.2,0
				c0.2-0.1,0.4-0.2,0.6-0.3c0.3-0.1,0.6-0.3,0.9-0.4c0.5-0.3,1.1-0.6,1.6-0.8c0.1,0,0.1-0.1,0.2,0c0,0,0,0.1,0.1,0.1l0,0
				c0,0.1,0,0.2,0,0.3c0.3,1,0.6,2,1,2.9c0.1,0.3,0.1,0.3,0.3,0.2c0.6-0.1,1.1-0.2,1.7-0.3c0,0,0.1,0,0.1-0.1c0.3,0,0.6-0.1,0.9-0.2
				c0.3,0,0.5-0.1,0.8-0.1c0,0.3,0,0.6,0.1,0.9c0,0.5,0.1,1,0.1,1.5c0,0.4,0.1,0.8,0.1,1.2c0,0,0,0,0,0.1c0,0,0,0.1,0.1,0.1
				c0.2,0,0.3,0,0.5,0.1c0.3,0,0.7,0,1,0.1c0.4,0,0.8,0,1.1,0.1c0.3,0,0.7,0,1,0.1l0,0c-0.1,0.4-0.2,0.8-0.2,1.2
				c-0.2,0.8-0.3,1.6-0.5,2.4c0.1,0.1,0.2,0.1,0.3,0.1c1,0.3,2,0.7,3,1c0.3,0.1,0.3,0.1,0.2,0.4c-0.4,0.9-0.9,1.8-1.3,2.6
				c0,0.1-0.1,0.1-0.1,0.2c-0.1,0.2-0.1,0.2,0.1,0.4c0.9,0.6,1.7,1.1,2.6,1.7c0.1,0,0.1,0.1,0.2,0.1c0.1,0,0.1,0.1,0,0.2
				c0,0,0,0.1-0.1,0.1c-0.3,0.3-0.5,0.6-0.8,0.8c-0.4,0.5-0.8,0.9-1.2,1.4c-0.1,0.1-0.2,0.2-0.3,0.3c-0.1,0.1-0.1,0.1,0,0.2
				c0,0,0.1,0.1,0.1,0.1c0.4,0.5,0.9,1,1.3,1.4c0.3,0.3,0.6,0.7,0.9,1c0.1,0.1,0.1,0.1,0,0.2c-0.3,0.2-0.7,0.5-1,0.7
				c-0.6,0.4-1.2,0.8-1.8,1.2c0,0,0,0-0.1,0.1c0,0-0.1,0.1,0,0.1c0,0.1,0.1,0.1,0.1,0.2c0.5,0.9,0.9,1.9,1.4,2.8
				c0.1,0.2,0.2,0.2-0.1,0.4c-1,0.3-1.9,0.6-2.9,1c-0.1,0-0.1,0-0.2,0.1c-0.2,0.1-0.2,0.1-0.2,0.3c0,0.3,0.1,0.5,0.2,0.8
				c0.2,0.8,0.3,1.6,0.5,2.4c0,0,0,0.1,0,0.2c0,0.1,0,0.1-0.1,0.2c-0.3,0-0.6,0-0.9,0.1c-0.5,0-1,0-1.6,0.1c-0.2,0-0.4,0-0.6,0
				c-0.1,0-0.2,0-0.3,0c-0.2,0-0.2,0.1-0.2,0.2c0,0.5,0,1.1-0.1,1.6c0,0.1,0,0.2,0,0.4c0,0.4,0,0.9-0.1,1.3c0,0,0,0.1,0,0.1
				c0,0.1-0.1,0.1-0.1,0.1c0,0-0.1,0-0.1,0c-0.2,0-0.4-0.1-0.7-0.1c-0.8-0.2-1.6-0.4-2.4-0.5c-0.4-0.1-0.4-0.1-0.5,0.3
				c-0.3,1-0.6,2-1,2.9c0,0.1,0,0.2-0.1,0.3c-0.1,0-0.2-0.1-0.2-0.1c-0.9-0.5-1.9-0.9-2.8-1.4c-0.1,0-0.2-0.1-0.2-0.1
				c0,0-0.1,0-0.1,0c0,0,0,0.1-0.1,0.1c-0.4,0.6-0.8,1.1-1.1,1.7C48.6,52.8,48.5,52.9,48.5,52.9z"/>
			<path fill="#FAC900" d="M40.6,51.6C40.6,51.7,40.7,51.7,40.6,51.6c0.3,0.4,0.6,0.8,0.8,1.2c0,0,0,0.1,0,0.1
				c-0.2,0.3-0.3,0.6-0.5,0.9c-0.4,0.6-0.7,1.3-1.1,1.9c-0.3,0.6-0.7,1.2-1,1.8c-0.3,0.6-0.7,1.2-1,1.8c-0.4,0.7-0.8,1.4-1.2,2.1
				c-0.3,0.5-0.6,1-0.8,1.4c-0.1,0.1-0.1,0.2-0.2,0.3c0,0-0.1,0-0.1,0c-0.1-0.3-0.1-0.5-0.2-0.8c-0.3-1.1-0.6-2.3-0.9-3.4
				c-0.2-0.9-0.5-1.8-0.7-2.7c0,0,0-0.1,0-0.1c-0.1-0.2-0.1-0.2-0.3-0.1c-0.8,0.2-1.7,0.5-2.5,0.7c-1.5,0.4-3,0.8-4.5,1.2
				c0,0,0-0.1,0-0.1c0.2-0.3,0.4-0.6,0.5-0.9c0.4-0.6,0.7-1.2,1.1-1.9c0.3-0.5,0.6-1.1,0.9-1.6c0.3-0.5,0.6-1,0.9-1.5
				c0.5-0.9,1-1.8,1.6-2.7c0,0,0-0.1,0-0.1c0.1-0.1,0.2-0.2,0.2-0.4c0.1-0.2,0.2-0.3,0.3-0.5c0,0.2,0,0.5,0.1,0.7c0,0.1,0,0.3,0,0.5
				c0,0.1,0,0.2,0,0.2c0,0.1,0.1,0.1,0.1,0.1c0.1,0,0.1,0,0.2,0c0.1,0,0.2,0,0.3,0c0,0,0,0.1,0,0.1c0,0.2,0,0.3,0,0.5
				c0,0.1,0,0.1,0.1,0.1c0.1,0,0.1,0,0.2,0c0.6-0.1,1.2-0.3,1.9-0.4c0.4-0.1,0.7-0.1,1.1-0.2c0.1,0.1,0.1,0.2,0.1,0.3
				c0.2,0.7,0.5,1.5,0.7,2.2c0.1,0.3,0.1,0.3,0.4,0.2c0,0,0.1,0,0.1,0c0.1,0.2,0.2,0.5,0.2,0.7c0,0.1,0.1,0.1,0.2,0.1
				c0.1,0,0.1-0.1,0.2-0.1c0.7-0.3,1.3-0.7,2-1c0.1-0.1,0.2-0.1,0.3-0.2C40.2,51.8,40.4,51.7,40.6,51.6z"/>
			<path fill="#8DB552" d="M53.3,12.9C53.3,12.9,53.3,12.9,53.3,12.9C53.3,12.8,53.3,12.9,53.3,12.9z"/>
			<path fill="#8DB552" d="M23.8,35.6C23.9,35.6,23.9,35.6,23.8,35.6C23.9,35.6,23.9,35.6,23.8,35.6z"/>
			<path fill="#8DB552" d="M47.9,11.5C47.9,11.5,47.9,11.4,47.9,11.5C47.9,11.4,47.9,11.5,47.9,11.5z"/>
			<path fill="#FAC900" d="M58.9,49.3c0.2,0.2,0.3,0.4,0.4,0.6c0.5,0.9,1,1.8,1.5,2.6c0.3,0.6,0.7,1.2,1,1.8c0.3,0.6,0.7,1.2,1,1.8
				c0.3,0.4,0.5,0.9,0.8,1.3c0,0.1,0.1,0.2,0.1,0.2c0,0.1-0.1,0.1-0.1,0c-0.6-0.2-1.3-0.3-1.9-0.5c-0.8-0.2-1.5-0.4-2.3-0.6
				c-0.9-0.2-1.8-0.5-2.7-0.7c0,0-0.1,0-0.1,0c-0.1,0-0.1,0-0.2,0.1c-0.1,0.3-0.2,0.6-0.2,0.9c-0.4,1.3-0.7,2.7-1.1,4
				c-0.2,0.7-0.3,1.3-0.5,2c0,0.1-0.1,0.2-0.1,0.3c-0.1,0-0.1-0.1-0.1-0.1c-0.7-1.2-1.3-2.3-2-3.5c-0.7-1.1-1.3-2.3-2-3.4
				c-0.4-0.7-0.8-1.4-1.2-2.1c0-0.1-0.1-0.2-0.1-0.3c0-0.1,0-0.1,0.1-0.2c0.4-0.6,0.8-1.3,1.3-1.9c0-0.1,0.1-0.1,0.2-0.2
				c0.1,0,0.1,0,0.1,0.1c0.7,0.3,1.3,0.7,2,1c0.3,0.1,0.5,0.2,0.8,0.4c0.1,0.1,0.2,0.1,0.3,0.2c0.1,0,0.1,0,0.2-0.1
				c0-0.1,0-0.1,0.1-0.2c0.1-0.2,0.2-0.5,0.2-0.7c0.3-0.8,0.5-1.5,0.8-2.3c0.1-0.2,0.1-0.3,0.4-0.2c0,0,0.1,0,0.1,0
				c0.3,0.1,0.7,0.1,1,0.2c0.6,0.1,1.1,0.2,1.7,0.3c0.2,0,0.3,0.1,0.5,0.1c0.1,0,0.1,0,0.1-0.1C58.8,49.9,58.9,49.6,58.9,49.3z"/>
			<path fill="#ED9E03" d="M58.9,49.3c0,0.3-0.1,0.6-0.1,0.9c0,0.1-0.1,0.1-0.1,0.1c-0.2,0-0.3,0-0.5-0.1c-0.6-0.1-1.1-0.2-1.7-0.3
				c-0.3-0.1-0.7-0.1-1-0.2c0,0-0.1,0-0.1,0c-0.2,0-0.3,0-0.4,0.2c-0.3,0.8-0.5,1.5-0.8,2.3c-0.1,0.2-0.2,0.5-0.2,0.7
				c0,0.1,0,0.1-0.1,0.2c0,0.1-0.1,0.1-0.2,0.1c-0.1-0.1-0.2-0.1-0.3-0.2c-0.2-0.1-0.5-0.3-0.8-0.4c-0.7-0.4-1.3-0.7-2-1
				c0,0-0.1,0-0.1-0.1c-0.1,0.1-0.1,0.1-0.2,0.2c-0.4,0.6-0.8,1.3-1.3,1.9c0,0.1,0,0.1-0.1,0.2c-0.1-0.1-0.1-0.2-0.2-0.2
				c-0.1-0.2-0.2-0.4-0.4-0.6c0-0.1,0.1-0.2,0.1-0.2c0.4-0.6,0.7-1.1,1.1-1.7c0,0,0-0.1,0.1-0.1c0,0,0.1,0,0.1,0
				c0.1,0,0.2,0.1,0.2,0.1c0.9,0.5,1.9,0.9,2.8,1.4c0.1,0,0.1,0.1,0.2,0.1c0.1-0.1,0.1-0.2,0.1-0.3c0.3-1,0.7-2,1-2.9
				c0.1-0.4,0.1-0.4,0.5-0.3c0.8,0.2,1.6,0.3,2.4,0.5c0.2,0,0.4,0.1,0.7,0.1c0,0,0.1,0,0.1,0c0.1,0,0.1,0,0.1-0.1c0,0,0-0.1,0-0.1
				c0-0.4,0-0.9,0.1-1.3c0.2,0.2,0.2,0.4,0.4,0.6C58.7,48.9,58.8,49.1,58.9,49.3z"/>
			<path fill="#FAC900" d="M61.1,32.6c0,0.3,0,0.6,0,0.8c0,0.4,0,0.8-0.1,1.2c0,0.2,0,0.3-0.1,0.5c-0.1,0.3-0.1,0.7-0.2,1
				c-0.1,0.6-0.3,1.2-0.5,1.7c-0.2,0.5-0.4,1.1-0.7,1.6c-0.4,0.8-0.8,1.6-1.4,2.3c-0.2,0.3-0.5,0.6-0.7,0.9c-0.4,0.6-0.9,1-1.4,1.5
				c-0.4,0.4-0.9,0.8-1.3,1.1c-0.4,0.3-0.7,0.5-1.1,0.8c-0.3,0.2-0.7,0.4-1.1,0.6c-0.7,0.3-1.3,0.7-2,0.9c-0.6,0.2-1.1,0.4-1.7,0.5
				c-0.4,0.1-0.7,0.2-1.1,0.2c-0.2,0-0.4,0-0.6,0.1c-0.3,0.1-0.6,0-0.9,0.1c-0.1,0-0.2,0-0.2,0c-0.7,0-1.3,0-2,0c-0.1,0-0.2,0-0.3,0
				c0,0-0.1,0-0.2,0c-0.5,0-0.9-0.1-1.4-0.2c-0.7-0.1-1.3-0.3-2-0.5c-0.6-0.2-1.2-0.4-1.7-0.7c-0.8-0.3-1.5-0.7-2.2-1.2
				c-0.5-0.4-1.1-0.7-1.6-1.1c-0.6-0.5-1.1-0.9-1.6-1.5c-0.4-0.5-0.8-0.9-1.2-1.4c-0.3-0.5-0.6-0.9-0.9-1.4c-0.3-0.5-0.5-1-0.8-1.5
				c-0.3-0.6-0.5-1.3-0.7-1.9c-0.2-0.5-0.3-1-0.4-1.6c-0.1-0.3-0.1-0.6-0.2-0.9c0-0.3-0.1-0.5-0.1-0.8c0,0,0-0.1,0-0.1
				c-0.1-0.5,0-1-0.1-1.5c0-0.2,0-0.4,0-0.7c0-0.2,0-0.4,0-0.5c0,0,0-0.1,0-0.1c0-0.5,0.1-0.9,0.2-1.4c0.1-0.9,0.4-1.8,0.7-2.7
				c0.2-0.4,0.3-0.9,0.5-1.3c0.1-0.2,0.2-0.4,0.3-0.6c0.5-0.8,0.9-1.7,1.5-2.4c0.3-0.4,0.6-0.8,0.9-1.1c0.2-0.2,0.4-0.5,0.7-0.7
				c0.3-0.3,0.6-0.5,0.9-0.8c0.6-0.5,1.2-0.9,1.9-1.3c0.2-0.1,0.4-0.2,0.6-0.4c0.3-0.2,0.6-0.3,0.9-0.5c0.8-0.4,1.7-0.7,2.6-1
				c0.6-0.2,1.1-0.3,1.7-0.4c0.2,0,0.4,0,0.6-0.1c0.3-0.1,0.6,0,0.9-0.1c0.1,0,0.1,0,0.2,0c0.6,0,1.3,0,1.9,0c0.1,0,0.2,0,0.4,0
				c0,0,0.1,0,0.1,0c0.3,0,0.5,0.1,0.8,0.1c0.3,0,0.5,0.1,0.8,0.1c0.4,0.1,0.8,0.2,1.2,0.3c0.6,0.2,1.3,0.4,1.9,0.6
				c0.5,0.2,0.9,0.4,1.4,0.6c0.6,0.3,1.3,0.7,1.9,1.1c0.2,0.2,0.5,0.4,0.7,0.5c0.2,0.1,0.3,0.2,0.4,0.4c0.5,0.4,1,0.9,1.5,1.4
				c0.7,0.7,1.3,1.5,1.8,2.3c0.4,0.7,0.8,1.4,1.1,2.1c0.2,0.5,0.4,0.9,0.6,1.4c0.2,0.7,0.4,1.4,0.5,2.1c0.1,0.4,0.1,0.7,0.2,1.1
				c0.1,0.4,0.1,0.8,0.1,1.2C61.1,32.2,61.1,32.4,61.1,32.6L61.1,32.6z M45.1,46.1c0.4,0,0.9,0,1.3-0.1c0.4,0,0.7-0.1,1.1-0.1
				c0.6-0.1,1.2-0.3,1.8-0.5c0.3-0.1,0.6-0.2,0.9-0.3c0.6-0.2,1.2-0.6,1.8-0.9c0.3-0.2,0.7-0.4,1-0.7c0.4-0.3,0.8-0.7,1.2-1
				c0.2-0.2,0.4-0.4,0.6-0.6c0.2-0.2,0.4-0.4,0.6-0.7c0.2-0.3,0.4-0.6,0.6-0.9c0.3-0.5,0.6-0.9,0.9-1.4c0.3-0.6,0.6-1.1,0.8-1.7
				c0.1-0.3,0.2-0.6,0.3-0.8c0.2-0.6,0.3-1.2,0.4-1.8c0-0.4,0.1-0.8,0.1-1.2c0-0.1,0-0.3,0-0.4c0.1-0.2,0.1-0.5,0-0.7
				c0-0.1,0-0.1,0-0.2c0-0.3,0-0.6-0.1-1c0-0.3-0.1-0.6-0.1-0.9c-0.1-0.6-0.3-1.3-0.5-1.9c-0.1-0.4-0.3-0.8-0.5-1.2
				c-0.1-0.4-0.3-0.7-0.5-1c-0.3-0.5-0.6-1.1-1-1.6c-0.3-0.5-0.7-0.9-1.1-1.3c-0.2-0.2-0.5-0.5-0.7-0.7c-0.3-0.2-0.5-0.5-0.8-0.7
				c-0.6-0.5-1.3-0.9-2-1.3c-0.6-0.3-1.2-0.6-1.8-0.8c-0.8-0.3-1.6-0.5-2.5-0.6c-0.2-0.1-0.4,0-0.6-0.1c-0.2,0-0.4,0-0.6,0
				c-0.3,0-0.5,0-0.8,0c-0.4,0-0.9,0-1.3,0.1c0,0-0.1,0-0.1,0c-0.2,0-0.5,0-0.7,0.1c-0.3,0.1-0.7,0.1-1,0.2
				c-0.7,0.2-1.5,0.4-2.1,0.7c-0.5,0.2-1.1,0.5-1.6,0.8c-0.4,0.2-0.8,0.5-1.2,0.8c-0.3,0.3-0.7,0.5-1,0.9c0,0,0,0-0.1,0.1
				c-0.3,0.2-0.5,0.4-0.7,0.7c-0.3,0.3-0.6,0.6-0.8,1c-0.3,0.3-0.5,0.7-0.7,1c-0.3,0.5-0.6,1-0.8,1.6c-0.2,0.4-0.3,0.8-0.5,1.2
				c-0.2,0.5-0.3,1-0.4,1.4c-0.1,0.6-0.2,1.1-0.3,1.7c0,0,0,0.1,0,0.1c-0.1,0.2-0.1,0.4-0.1,0.7c0,0.5,0,0.9,0,1.4
				c0,0.1,0,0.2,0,0.2c0.1,0.3,0.1,0.5,0.1,0.8c0.1,0.3,0.1,0.6,0.2,0.9c0.2,0.8,0.4,1.5,0.7,2.2c0.2,0.6,0.5,1.1,0.8,1.6
				c0.1,0.2,0.2,0.4,0.3,0.6c0.3,0.5,0.6,1,1,1.4c0.2,0.3,0.5,0.6,0.7,0.8c0.2,0.2,0.4,0.4,0.6,0.6c0.3,0.2,0.5,0.5,0.8,0.7
				c0.7,0.5,1.4,1,2.2,1.4c0.2,0.1,0.4,0.2,0.5,0.2c0.6,0.3,1.3,0.5,2,0.7c0.4,0.1,0.9,0.2,1.3,0.3c0.2,0,0.4,0.1,0.7,0.1
				c0,0,0.1,0,0.1,0c0.2,0.1,0.3,0,0.5,0C44.4,46.1,44.7,46.1,45.1,46.1z"/>
			<path fill="#ED9E03" d="M40.6,51.6c-0.2,0-0.3,0.1-0.5,0.2C40,51.9,39.9,52,39.8,52c-0.7,0.3-1.3,0.7-2,1c-0.1,0-0.1,0.1-0.2,0.1
				c-0.1,0-0.1,0-0.2-0.1c-0.1-0.2-0.2-0.5-0.2-0.7c0-0.1,0.1-0.1,0.2-0.1c0.9-0.4,1.7-0.9,2.6-1.3c0,0,0.1,0,0.1,0c0,0,0.1,0,0.1,0
				C40.3,51.1,40.5,51.3,40.6,51.6z"/>
			<path fill="#ED9E03" d="M35.8,49.7c-0.4,0.1-0.7,0.1-1.1,0.2c-0.6,0.1-1.2,0.3-1.9,0.4c0,0-0.1,0-0.2,0c-0.1,0-0.1,0-0.1-0.1
				c0-0.2,0-0.3,0-0.5c0,0,0-0.1,0-0.1c0.2-0.1,0.4-0.1,0.7-0.2c0.5-0.1,0.9-0.2,1.4-0.3c0.3-0.1,0.6-0.1,0.9-0.2c0.1,0,0.1,0,0.1,0
				C35.7,49.3,35.8,49.5,35.8,49.7z"/>
			<path fill="#FFED33" d="M45.1,46.1c-0.4,0-0.7,0-1,0c-0.2,0-0.3,0-0.5,0c0,0-0.1,0-0.1,0c-0.2,0-0.4,0-0.7-0.1
				c-0.4-0.1-0.9-0.2-1.3-0.3c-0.7-0.2-1.3-0.4-2-0.7c-0.2-0.1-0.4-0.2-0.5-0.2c-0.8-0.4-1.5-0.8-2.2-1.4c-0.3-0.2-0.6-0.5-0.8-0.7
				c-0.2-0.2-0.4-0.4-0.6-0.6c-0.3-0.3-0.5-0.6-0.7-0.8c-0.4-0.4-0.7-0.9-1-1.4c-0.1-0.2-0.2-0.4-0.3-0.6c-0.3-0.5-0.6-1.1-0.8-1.6
				c-0.3-0.7-0.5-1.5-0.7-2.2c-0.1-0.3-0.1-0.6-0.2-0.9c0-0.3,0-0.5-0.1-0.8c0-0.1,0-0.2,0-0.2c0-0.5,0-0.9,0-1.4
				c0-0.2,0-0.4,0.1-0.7c0,0,0-0.1,0-0.1c0-0.6,0.1-1.2,0.3-1.7c0.1-0.5,0.2-1,0.4-1.4c0.1-0.4,0.3-0.8,0.5-1.2
				c0.3-0.5,0.5-1.1,0.8-1.6c0.2-0.3,0.5-0.7,0.7-1c0.3-0.3,0.5-0.6,0.8-1c0.2-0.2,0.4-0.5,0.7-0.7c0,0,0,0,0.1-0.1
				c0.3-0.3,0.7-0.6,1-0.9c0.4-0.3,0.8-0.5,1.2-0.8c0.5-0.3,1-0.6,1.6-0.8c0.7-0.3,1.4-0.5,2.1-0.7c0.3-0.1,0.7-0.2,1-0.2
				c0.2,0,0.5-0.1,0.7-0.1c0,0,0.1,0,0.1,0c0.4-0.1,0.9,0,1.3-0.1c0.3,0,0.5,0,0.8,0c0.2,0,0.4,0,0.6,0c0.2,0,0.4,0,0.6,0.1
				c0.8,0.1,1.7,0.3,2.5,0.6c0.6,0.2,1.2,0.5,1.8,0.8c0.7,0.4,1.4,0.8,2,1.3c0.3,0.2,0.6,0.5,0.8,0.7c0.2,0.2,0.5,0.4,0.7,0.7
				c0.4,0.4,0.8,0.9,1.1,1.3c0.4,0.5,0.7,1,1,1.6c0.2,0.3,0.3,0.7,0.5,1c0.2,0.4,0.3,0.8,0.5,1.2c0.2,0.6,0.4,1.2,0.5,1.9
				c0,0.3,0.1,0.6,0.1,0.9c0.1,0.3,0,0.7,0.1,1c0,0.1,0,0.1,0,0.2c0.1,0.2,0.1,0.5,0,0.7c0,0.1,0,0.3,0,0.4c0,0.4-0.1,0.8-0.1,1.2
				c-0.1,0.6-0.2,1.2-0.4,1.8c-0.1,0.3-0.2,0.6-0.3,0.8c-0.2,0.6-0.5,1.2-0.8,1.7c-0.3,0.5-0.5,1-0.9,1.4c-0.2,0.3-0.4,0.6-0.6,0.9
				c-0.2,0.2-0.4,0.4-0.6,0.7c-0.2,0.2-0.4,0.4-0.6,0.6c-0.4,0.4-0.8,0.7-1.2,1c-0.3,0.2-0.7,0.5-1,0.7c-0.6,0.3-1.2,0.7-1.8,0.9
				c-0.3,0.1-0.6,0.2-0.9,0.3c-0.6,0.2-1.2,0.4-1.8,0.5c-0.3,0.1-0.7,0.2-1.1,0.1C46,46.1,45.5,46,45.1,46.1z M38,42
				c0.1,0,0.2-0.1,0.3-0.1c0.7-0.4,1.4-0.7,2.1-1.1c0.4-0.2,0.8-0.4,1.2-0.6c0.7-0.4,1.4-0.7,2.1-1.1c0.1,0,0.2-0.1,0.2-0.1
				c0.3-0.2,0.7-0.3,1-0.5c0.1,0,0.1,0,0.2,0c0.1,0.1,0.2,0.1,0.3,0.2c0.8,0.4,1.6,0.8,2.4,1.2c0.4,0.2,0.9,0.4,1.3,0.7
				c0.6,0.3,1.2,0.6,1.8,1c0.1,0.1,0.2,0.1,0.4,0.2c0.2,0.1,0.4,0.2,0.6,0.3c0,0,0.1,0,0.1,0c0,0,0-0.1,0-0.1
				c-0.1-0.4-0.2-0.9-0.2-1.3c-0.1-0.5-0.2-1.1-0.3-1.6c-0.1-0.4-0.2-0.9-0.2-1.3c-0.1-0.4-0.1-0.8-0.2-1.2
				c-0.1-0.3-0.1-0.6-0.2-0.9c-0.1-0.3-0.1-0.6-0.2-0.9c-0.1-0.3,0-0.4,0.2-0.6c0.7-0.7,1.4-1.4,2.2-2.1c0.8-0.8,1.6-1.6,2.5-2.4
				c0.2-0.2,0.4-0.4,0.5-0.5c0.1-0.1,0.1-0.1,0.1-0.2c0,0,0.1-0.1,0-0.1c0,0-0.1,0-0.1,0c-0.2,0-0.5-0.1-0.7-0.1
				c-0.2,0-0.4-0.1-0.6-0.1c-0.4,0-0.7-0.1-1.1-0.1c-0.4-0.1-0.8-0.1-1.2-0.2c-0.2,0-0.3,0-0.5-0.1c-0.2,0-0.4-0.1-0.6-0.1
				c-0.2,0-0.4,0-0.6-0.1c-0.4-0.1-0.7-0.1-1.1-0.2c-0.3,0-0.7-0.1-1-0.1c-0.2,0-0.3-0.1-0.4-0.3c-0.2-0.4-0.3-0.7-0.5-1.1
				c-0.9-1.8-1.8-3.6-2.7-5.4c0-0.1-0.1-0.1-0.1-0.2c0-0.1-0.1-0.1-0.1,0c0,0,0,0.1-0.1,0.1c-0.5,1.1-1.1,2.2-1.7,3.4
				c-0.5,1.1-1.1,2.2-1.6,3.2c-0.1,0.2-0.2,0.2-0.4,0.3c-0.2,0-0.4,0-0.6,0.1c-0.4,0.1-0.7,0.1-1.1,0.2C39.2,28,38.8,28,38.5,28
				c-0.2,0-0.4,0-0.5,0.1c-0.3,0.1-0.7,0.1-1,0.2c-0.2,0-0.4,0-0.6,0.1c-0.2,0-0.4,0.1-0.6,0.1c-0.4,0-0.7,0.1-1.1,0.1
				c-0.3,0-0.5,0.1-0.8,0.1c0,0,0,0-0.1,0c0,0,0,0,0,0.1c0,0,0.1,0.1,0.1,0.1c0.1,0.1,0.3,0.2,0.4,0.4c1.1,1.1,2.2,2.2,3.3,3.2
				c0.4,0.4,0.8,0.8,1.2,1.1c0.1,0.1,0.1,0.1,0.2,0.2c0.1,0.1,0.2,0.2,0.4,0.3c0.1,0.1,0.1,0.1,0,0.2c-0.1,0.3-0.1,0.6-0.2,1
				c-0.1,0.3-0.1,0.6-0.2,0.9c0,0.3-0.1,0.5-0.1,0.8c0,0.3-0.1,0.6-0.1,0.9c-0.1,0.4-0.2,0.8-0.2,1.2c-0.1,0.4-0.1,0.9-0.2,1.3
				C38.2,40.9,38.1,41.4,38,42z"/>
			<path fill="#FAC900" d="M38,42c0.1-0.5,0.2-1.1,0.3-1.6c0.1-0.4,0.1-0.9,0.2-1.3c0.1-0.4,0.2-0.8,0.2-1.2
				c0.1-0.3,0.1-0.6,0.1-0.9c0-0.3,0.1-0.5,0.1-0.8c0.1-0.3,0.1-0.6,0.2-0.9c0.1-0.3,0.1-0.6,0.2-1c0-0.1,0-0.1,0-0.2
				c-0.1-0.1-0.2-0.2-0.4-0.3c-0.1,0-0.1-0.1-0.2-0.2c-0.4-0.4-0.8-0.8-1.2-1.1c-1.1-1.1-2.2-2.1-3.3-3.2c-0.1-0.1-0.3-0.2-0.4-0.4
				c0,0-0.1-0.1-0.1-0.1c0,0,0-0.1,0-0.1c0,0,0,0,0.1,0c0.3,0,0.5-0.1,0.8-0.1c0.4-0.1,0.7-0.1,1.1-0.1c0.2,0,0.4-0.1,0.6-0.1
				c0.2,0,0.4,0,0.6-0.1c0.3,0,0.7-0.1,1-0.2c0.2,0,0.4,0,0.5-0.1c0.3-0.1,0.7-0.1,1.1-0.1c0.4-0.1,0.7-0.1,1.1-0.2
				c0.2,0,0.4-0.1,0.6-0.1c0.2,0,0.3-0.1,0.4-0.3c0.5-1.1,1.1-2.1,1.6-3.2c0.5-1.1,1.1-2.2,1.7-3.4c0,0,0-0.1,0.1-0.1
				c0-0.1,0.1-0.1,0.1,0c0,0.1,0.1,0.1,0.1,0.2c0.9,1.8,1.8,3.6,2.7,5.4c0.2,0.4,0.4,0.7,0.5,1.1c0.1,0.2,0.2,0.3,0.4,0.3
				c0.3,0,0.7,0.1,1,0.1c0.4,0.1,0.7,0.1,1.1,0.2c0.2,0,0.4,0,0.6,0.1c0.2,0,0.4,0.1,0.6,0.1c0.2,0,0.3,0,0.5,0.1
				c0.4,0.1,0.8,0.1,1.2,0.2c0.4,0.1,0.7,0.1,1.1,0.1c0.2,0,0.4,0.1,0.6,0.1c0.2,0,0.5,0.1,0.7,0.1c0,0,0.1,0,0.1,0c0,0,0,0.1,0,0.1
				c0,0.1-0.1,0.1-0.1,0.2c-0.2,0.2-0.4,0.4-0.5,0.5c-0.9,0.8-1.6,1.6-2.5,2.4c-0.7,0.7-1.4,1.4-2.2,2.1c-0.2,0.2-0.2,0.4-0.2,0.6
				c0.1,0.3,0.1,0.6,0.2,0.9c0.1,0.3,0.1,0.6,0.2,0.9c0.1,0.4,0.1,0.8,0.2,1.2c0.1,0.4,0.2,0.9,0.2,1.3c0.1,0.5,0.2,1.1,0.3,1.6
				c0.1,0.4,0.2,0.9,0.2,1.3c0,0,0,0.1,0,0.1c0,0-0.1,0-0.1,0c-0.2-0.1-0.4-0.2-0.6-0.3c-0.1-0.1-0.2-0.1-0.4-0.2
				c-0.6-0.3-1.2-0.6-1.8-1c-0.4-0.2-0.9-0.4-1.3-0.7c-0.8-0.4-1.6-0.8-2.4-1.2c-0.1-0.1-0.2-0.1-0.3-0.2c-0.1,0-0.1,0-0.2,0
				c-0.3,0.2-0.7,0.3-1,0.5c-0.1,0-0.2,0.1-0.2,0.1c-0.7,0.4-1.4,0.7-2.1,1.1c-0.4,0.2-0.8,0.4-1.2,0.6c-0.7,0.4-1.4,0.7-2.1,1.1
				C38.2,41.9,38.1,42,38,42z"/>
		</g>
	</g>
	<circle opacity="0.1" cx="76.9" cy="62.1" r="9.4"/>
	<polygon fill="#FFFFFF" points="73.4,56.6 82.9,62.1 73.4,67.5 	"/>
</g>
</svg>
