<?xml version="1.0" encoding="utf-8"?>
<!-- Generator: Adobe Illustrator 18.1.1, SVG Export Plug-In . SVG Version: 6.00 Build 0)  -->
<svg version="1.1" xmlns="http://www.w3.org/2000/svg" xmlns:xlink="http://www.w3.org/1999/xlink" x="0px" y="0px" width="90px"
	 height="120px" viewBox="0 0 90 120" enable-background="new 0 0 90 120" xml:space="preserve">
<g id="Warstwa_1">
</g>
<g id="Warstwa_3">
	<g id="LY0VCO_2_">
		<g>
			<path fill="#FFFFFF" d="M50.6,23.2c0.5,0,1,0,1.4,0c0.1,0,0.1,0,0.2,0c4,0.4,7.3,3.1,8.3,7c0.2,0.6,0.2,1.2,0.3,1.8
				c0,0.5,0,1,0,1.4c0,0.1,0,0.2-0.1,0.2c-0.1,0.8-0.2,1.5-0.5,2.2c-1.7,5-7.4,7.7-12.3,5.8c-0.2-0.1-0.3-0.1-0.4,0.1
				c-0.6,0.7-1.3,1.3-1.9,1.9c-0.1,0.1-0.2,0.2-0.2,0.4c0,1,0,1.9,0,2.9c0,0.6-0.4,1-1,1c-0.8,0-1.7,0-2.5,0c-0.2,0-0.3,0.1-0.3,0.3
				c0,0.8,0,1.7,0,2.5c0,0.6-0.4,1-1,1c-0.7,0-1.4,0.1-2.2,0c-0.7-0.1-1.2,0.2-1.7,0.7c-0.4,0.5-0.8,0.9-1.4,1.2c-1.5,0-3,0-4.6,0
				c-0.3-0.1-0.6-0.4-0.7-0.7c0-1.5,0-3,0-4.6c0.1-0.2,0.3-0.4,0.5-0.6c3.8-3.8,7.7-7.7,11.5-11.5c0.1-0.1,0.2-0.2,0.1-0.4
				c-0.6-1.7-0.8-3.4-0.4-5.1c0.8-3.8,3.1-6.2,6.8-7.4C49.3,23.4,49.9,23.3,50.6,23.2z M53.2,27.6c-1.8,0-3.3,1.5-3.3,3.3
				c0,1.8,1.5,3.3,3.3,3.3c1.8,0,3.3-1.5,3.3-3.3C56.5,29,55,27.6,53.2,27.6z"/>
		</g>
	</g>
</g>
</svg>
