<?xml version="1.0" encoding="utf-8"?>
<!-- Generator: Adobe Illustrator 18.1.1, SVG Export Plug-In . SVG Version: 6.00 Build 0)  -->
<svg version="1.1" id="Warstwa_1" xmlns="http://www.w3.org/2000/svg" xmlns:xlink="http://www.w3.org/1999/xlink" x="0px" y="0px"
	width="50px" height="165.8px" viewBox="-274 118.2 50 165.8" enable-background="new -274 118.2 50 165.8" xml:space="preserve">
<g id="Warstwa_1_1_">
	<path fill="#4A9EFF" d="M-242.9,201.9c0-0.1-0.1-0.1-0.2-0.1c-0.2,0-0.4,0-0.5,0c-0.2,0-0.4,0.1-1.3,0c-1.3-0.1-2.3-0.4-2.6-0.5
		c-0.1-0.1-0.1-0.2-0.2-0.3l-1.3-3.3l0,0l-0.1-0.1c-0.1-0.1-0.2,0-0.3,0.1c-0.4,0.8-0.7,1.5-0.9,2.1s-0.5,1.3-0.8,2
		c-1.2-0.2-2.9,0.2-3.9,0.4c-0.1,0-0.1,0.1-0.1,0.1c0,0.1,0,0.1,0,0.2c0.9,1.1,1.7,1.8,3.1,2.7c-0.1,0.7-0.2,1.4-0.4,2
		c-0.2,0.7-0.4,1.4-0.5,2.3c0,0.1,0,0.2,0.1,0.2h0.1h0.1c0.8-0.5,1.3-0.9,1.7-1.3c0.1-0.1,0.2-0.2,0.4-0.3l0.1-0.1
		c0.1-0.1,0.2-0.1,0.2-0.2c0.1,0,0.1-0.1,0.2-0.1c0.1-0.1,0.2-0.1,0.2-0.2c0.1,0,0.1-0.1,0.2-0.1c0.1,0,0.1-0.1,0.2-0.1
		c1.3,0.8,2.7,1.5,4.2,2.1c0.1,0,0.2,0,0.2,0c0.1,0,0.1-0.1,0.1-0.2c-0.3-1.4-0.7-2.9-1.3-4.2c0.7-0.5,1.4-1,2-1.6l1.2-1.2
		C-242.9,202.1-242.9,202-242.9,201.9z"/>
</g>
<g id="Warstwa_3">
</g>
</svg>
