<?xml version="1.0" encoding="utf-8"?>
<!-- Generator: Adobe Illustrator 18.1.1, SVG Export Plug-In . SVG Version: 6.00 Build 0)  -->
<svg version="1.1" xmlns="http://www.w3.org/2000/svg" xmlns:xlink="http://www.w3.org/1999/xlink" x="0px" y="0px" width="885px"
	 height="45px" viewBox="0 0 885 45" enable-background="new 0 0 885 45" xml:space="preserve">
<g id="Warstwa_1">
</g>
<g id="Warstwa_4">
</g>
<g id="Warstwa_3">
	<line fill="none" stroke="#CCCCCC" stroke-width="0.9999" stroke-miterlimit="10" x1="44" y1="22.5" x2="885" y2="22.5"/>
	<g>
		<path fill="#FFFFFF" d="M22.5,44.5c-12.1,0-22-9.9-22-22c0-12.1,9.9-22,22-22s22,9.9,22,22C44.5,34.6,34.6,44.5,22.5,44.5z"/>
		<path fill="#CCCCCC" d="M22.5,1C34.3,1,44,10.7,44,22.5S34.3,44,22.5,44S1,34.3,1,22.5S10.7,1,22.5,1 M22.5,0
			C10.1,0,0,10.1,0,22.5S10.1,45,22.5,45C34.9,45,45,34.9,45,22.5S34.9,0,22.5,0L22.5,0z"/>
	</g>
</g>
</svg>
