<?xml version="1.0" encoding="utf-8"?>
<!-- Generator: Adobe Illustrator 18.1.1, SVG Export Plug-In . SVG Version: 6.00 Build 0)  -->
<svg version="1.1" xmlns="http://www.w3.org/2000/svg" xmlns:xlink="http://www.w3.org/1999/xlink" x="0px" y="0px" width="90px"
	 height="120px" viewBox="0 0 90 120" enable-background="new 0 0 90 120" xml:space="preserve">
<g id="Warstwa_1">
</g>
<g id="Warstwa_3">
	<g id="ilz0Bt_8_">
		<g>
			<path fill="#FFFFFF" d="M63.5,30.4c-0.1,0.4-0.4,0.6-0.7,0.9C55.1,39,47.4,46.7,39.7,54.4c-0.6,0.6-1.3,0.6-2,0
				c-4.5-4.4-8.7-9-13.1-13.5c-0.2-0.2-0.4-0.5-0.5-0.8c0-0.2,0-0.4,0-0.6c0.2-0.4,0.5-0.7,0.8-1c1-0.9,2-1.8,3-2.7
				c0.7-0.6,1.3-0.6,2,0.1c2.6,2.6,5.1,5.2,7.7,7.8c0.8,0.8,1.4,0.8,2.1,0c6-6,12-11.9,17.9-17.9c0.8-0.8,1.4-0.8,2.1,0
				c1,1,2,2,3,3.1c0.3,0.3,0.5,0.5,0.6,0.9C63.5,30.1,63.5,30.2,63.5,30.4z"/>
		</g>
	</g>
</g>
</svg>
