<?xml version="1.0" encoding="utf-8"?>
<!-- Generator: Adobe Illustrator 18.1.1, SVG Export Plug-In . SVG Version: 6.00 Build 0)  -->
<svg version="1.1" xmlns="http://www.w3.org/2000/svg" xmlns:xlink="http://www.w3.org/1999/xlink" x="0px" y="0px" width="90px"
	 height="120px" viewBox="0 0 90 120" enable-background="new 0 0 90 120" xml:space="preserve">
<g id="Warstwa_1">
</g>
<g id="Warstwa_3">
	<g id="G53c9e_1_">
		<g>
			<path fill="#FFFFFF" d="M57.6,37.7c0,5.1,0,10.2,0,15.3c-0.4,0.6-1.1,0.8-1.8,1.1c-7.5,2.6-15.1,2.5-22.6-0.2
				c-1-0.3-1.1-0.6-1.1-1.6c0-4.6,0-9.1,0-13.7c0-1.3,0.4-1.7,1.7-1.7c5.1,0,10.2,0,15.3,0c0.2,0,0.3,0,0.5,0c0.3,0,0.4-0.1,0.4-0.4
				c-0.1-2,0.1-4-0.1-6c-0.3-2.5-2.4-4.6-4.6-4.7c-2.6-0.1-4.7,1.5-5.4,4.1c-0.2,0.8-0.2,1.6-0.2,2.4c0,0.3,0,0.5-0.5,0.5
				c-1.2,0-2.5,0-3.7,0c-0.4,0-0.5-0.1-0.5-0.5c0-1,0-1.9,0.2-2.9c0.8-4.4,4.6-8.6,10.5-8.2c4.6,0.3,8.6,4.5,8.8,9.3
				c0.1,1.8,0,3.6,0,5.4c0,1-0.1,0.9,0.9,0.9C56.3,36.8,57.1,36.8,57.6,37.7z M53.7,40.6c-0.5-0.5-1-1-1.5-1.5c-0.4-0.4-0.7-0.4-1,0
				c-2.9,2.9-5.8,5.8-8.7,8.6c-0.4,0.4-0.7,0.4-1,0c-1.2-1.3-2.5-2.5-3.7-3.8c-0.3-0.3-0.6-0.3-1,0c-0.5,0.4-1,0.9-1.5,1.3
				c-0.2,0.1-0.3,0.3-0.4,0.5c0,0.1,0,0.2,0,0.3c0.1,0.1,0.1,0.3,0.2,0.4c2.1,2.2,4.2,4.4,6.3,6.5c0.3,0.3,0.6,0.3,1,0
				c3.7-3.7,7.5-7.5,11.2-11.2c0.1-0.1,0.3-0.3,0.3-0.4c0-0.1,0-0.2,0-0.3C53.9,40.8,53.8,40.7,53.7,40.6z"/>
		</g>
	</g>
</g>
</svg>
