<?xml version="1.0" encoding="utf-8"?>
<!-- Generator: Adobe Illustrator 18.1.1, SVG Export Plug-In . SVG Version: 6.00 Build 0)  -->
<svg version="1.1" id="Warstwa_1" xmlns="http://www.w3.org/2000/svg" xmlns:xlink="http://www.w3.org/1999/xlink" x="0px" y="0px"
	 width="90px" height="224px" viewBox="-254 89 90 224" enable-background="new -254 89 90 224" xml:space="preserve">
<g id="Warstwa_1_1_">
</g>
<path fill="#FFFFFF" d="M-195.1,120.6l-6.6-4.5c-0.8-0.2-1.5-0.5-2.1,0.7v19.1c0.4,0.7,0.8,1.4,2.1,0.9l14.1-10.7L-195.1,120.6z"/>
<path fill="#FFFFFF" d="M-205,267.9h12.7c0.9,0,1.7,0.8,1.7,1.7v12.7c0,0.9-0.8,1.7-1.7,1.7H-205c-0.9,0-1.7-0.8-1.7-1.7v-12.7
	C-206.7,268.7-206,267.9-205,267.9z"/>
<path fill="#FFFFFF" d="M-205,192.9h2.7c0.9,0,1.7,0.8,1.7,1.7v12.7c0,0.9-0.8,1.7-1.7,1.7h-2.7c-0.9,0-1.7-0.8-1.7-1.7v-12.7
	C-206.7,193.7-206,192.9-205,192.9z"/>
<path fill="#FFFFFF" d="M-195,192.9h2.7c0.9,0,1.7,0.8,1.7,1.7v12.7c0,0.9-0.8,1.7-1.7,1.7h-2.7c-0.9,0-1.7-0.8-1.7-1.7v-12.7
	C-196.7,193.7-196,192.9-195,192.9z"/>
</svg>
