<?xml version="1.0" encoding="utf-8"?>
<!-- Generator: Adobe Illustrator 15.1.0, SVG Export Plug-In  -->
<!DOCTYPE svg PUBLIC "-//W3C//DTD SVG 1.1//EN" "http://www.w3.org/Graphics/SVG/1.1/DTD/svg11.dtd" [
	<!ENTITY ns_flows "http://ns.adobe.com/Flows/1.0/">
]>
<svg version="1.1"
	 xmlns="http://www.w3.org/2000/svg" xmlns:xlink="http://www.w3.org/1999/xlink" xmlns:a="http://ns.adobe.com/AdobeSVGViewerExtensions/3.0/"
	 x="0px" y="0px" width="80px" height="80px" viewBox="-0.052 0 80 80" overflow="visible" enable-background="new -0.052 0 80 80"
	 xml:space="preserve">
<defs>
</defs>
<linearGradient id="SVGID_1_" gradientUnits="userSpaceOnUse" x1="39.9487" y1="0" x2="39.9487" y2="76.2716">
	<stop  offset="0" style="stop-color:#FFD700"/>
	<stop  offset="0.0754" style="stop-color:#FFD400"/>
	<stop  offset="0.4887" style="stop-color:#FFCA00"/>
	<stop  offset="1" style="stop-color:#FFC700"/>
</linearGradient>
<path fill-rule="evenodd" clip-rule="evenodd" fill="url(#SVGID_1_)" d="M52.732,24.768C49.301,16.037,47.195,5.98,41.014,0
	c-0.444,0-0.888,0-1.332,0c-6.091,6.071-8.665,15.659-12.251,24.235c-0.799,0-1.598,0-2.397,0c-0.896,0.169-2.474-0.343-2.929,0.267
	C13.99,24.998,4.702,24.32,0,28.23c0,0.443,0,0.888,0,1.331c2.878,5.133,9.304,10.29,14.115,14.382
	c1.217,1.034,4.602,3.591,4.793,4.527c0.274,1.337-1.375,4.631-1.864,6.392c-1.85,6.667-4.132,13.698-2.663,20.507
	c5.146,0.226,9.215-2.975,13.05-5.06c4.09-2.225,8.112-4.282,11.718-6.925c7.327,4.569,14.273,9.518,22.637,13.05
	c0.533,0,1.065,0,1.598,0c2.8-2.161,0.462-10.173-0.266-13.849c-1.034-5.215-1.958-9.827-2.93-13.316
	c6.402-6.292,14.657-10.732,19.708-18.376c0-0.444,0-0.888,0-1.332C73.405,25.4,62.301,25.853,52.732,24.768z"/>
<path fill-rule="evenodd" clip-rule="evenodd" d="M33.556,36.753c-0.851-0.221-1.328-0.962-2.13-1.065
	c-2.031-0.264-2.99,1.201-4.261,2.13C26.972,34.427,32.848,33.3,33.556,36.753z"/>
<path fill-rule="evenodd" clip-rule="evenodd" d="M51.666,38.617c-1.193-0.895-2.085-2.064-3.995-1.864
	c-0.975,0.102-1.445,0.84-2.397,1.064C46.009,34.677,51.664,35.25,51.666,38.617z"/>
<path fill-rule="evenodd" clip-rule="evenodd" d="M31.426,43.41c0.807,0.739-0.564,1.552-0.799,2.131
	c1.028,8.121,13.755,10.353,15.979,1.332c0.103-1.435-1.323-1.341-1.065-2.93c0.674,0.214,0.679,1.097,1.065,1.598
	c0.862-0.114,2.303,0.351,2.397-0.532c0.759,0.863-1.193,1.28-1.864,1.598c-1.837,10.416-15.667,8.708-17.045-0.799
	c-0.884-0.447-1.988-0.676-2.13-1.864C28.994,44.912,31.015,45.042,31.426,43.41z"/>
</svg>
