<?xml version="1.0" encoding="utf-8"?>
<!-- Generator: Adobe Illustrator 18.1.1, SVG Export Plug-In . SVG Version: 6.00 Build 0)  -->
<svg version="1.1" xmlns="http://www.w3.org/2000/svg" xmlns:xlink="http://www.w3.org/1999/xlink" x="0px" y="0px" width="90px"
	 height="224px" viewBox="0 0 90 224" enable-background="new 0 0 90 224" xml:space="preserve">
<g id="Warstwa_1">
</g>
<g id="Warstwa_3">
	<g>
		<g id="Rdj1fI_6_">
			<g>
				<path fill="#FFFFFF" d="M57.3,37.1c0,2.8,0,5.7,0,8.5c0,0.3,0.1,0.6-0.2,0.8c-0.3,0.2-0.5-0.1-0.8-0.3c-1.7-1.4-3.4-2.7-5-4.1
					c-0.7-0.6-1.5-0.9-2.4-0.9c-0.8,0-1.6,0-2.3,0c-0.9,0-1.3-0.4-1.3-1.3c0-1.8,0-3.6,0-5.4c0-0.8,0.3-1.2,1.2-1.2
					c0.8,0,1.6,0,2.5,0c0.9,0,1.6-0.3,2.3-0.9c1.7-1.5,3.4-2.9,5.2-4.4c0.2-0.2,0.4-0.5,0.8-0.3c0.3,0.2,0.2,0.5,0.2,0.8
					C57.3,31.4,57.3,34.3,57.3,37.1z"/>
				<path fill="#FFFFFF" d="M69.6,37.3c-0.1,4.2-1.5,7.9-4.3,11.1c-0.3,0.3-0.5,0.4-0.8,0c-0.3-0.4-1-0.7-1.1-1.2
					c-0.1-0.5,0.6-0.8,0.9-1.2c4.3-5.4,4-13.1-0.7-18.1c-0.3-0.3-0.4-0.5,0-0.8c0.3-0.3,0.6-0.6,0.9-0.9c0.3-0.3,0.4-0.2,0.7,0
					C68.1,29.4,69.5,33.1,69.6,37.3z"/>
				<path fill="#FFFFFF" d="M64.9,37.7c0,2.6-1,5.2-3,7.4c-0.3,0.4-0.6,0.4-0.9,0c-0.3-0.4-0.9-0.7-1-1.2c-0.1-0.4,0.5-0.8,0.8-1.2
					c2.5-3.5,2.3-8.3-0.6-11.5c-0.3-0.4-0.4-0.6,0-0.9c0.1,0,0.1-0.1,0.2-0.2c1.1-1.1,1.1-1.1,2,0.2C64.1,32.4,64.9,34.8,64.9,37.7z
					"/>
			</g>
		</g>
	</g>
	<path fill="#FFFFFF" d="M58.9,106.6l-6.6-4.5c-0.8-0.2-1.5-0.5-2.1,0.7v19.1c0.4,0.7,0.8,1.4,2.1,0.9l14.1-10.7L58.9,106.6z"/>
	<path fill="#FFFFFF" d="M49,178.9h12.7c0.9,0,1.7,0.8,1.7,1.7v12.7c0,0.9-0.8,1.7-1.7,1.7H49c-0.9,0-1.7-0.8-1.7-1.7v-12.7
		C47.3,179.7,48,178.9,49,178.9z"/>
</g>
</svg>
