<?xml version="1.0" encoding="utf-8"?>
<!-- Generator: Adobe Illustrator 15.1.0, SVG Export Plug-In  -->
<!DOCTYPE svg PUBLIC "-//W3C//DTD SVG 1.1//EN" "http://www.w3.org/Graphics/SVG/1.1/DTD/svg11.dtd" [
	<!ENTITY ns_flows "http://ns.adobe.com/Flows/1.0/">
]>
<svg version="1.1"
	 xmlns="http://www.w3.org/2000/svg" xmlns:xlink="http://www.w3.org/1999/xlink" xmlns:a="http://ns.adobe.com/AdobeSVGViewerExtensions/3.0/"
	 x="0px" y="0px" width="15px" height="25px" viewBox="-2.228 -3.175 15 25"
	 overflow="visible" enable-background="new -2.228 -3.175 15 25" xml:space="preserve">
<defs>
</defs>
<path fill-rule="evenodd" clip-rule="evenodd" fill="#B2B2B2" d="M5.514,0.006c0.365-0.064,0.349,0.399,0.419,0.559
	c0.665,1.496,1.87,2.613,3.071,3.839c0.74,0.755,1.363,1.534,1.744,2.722c0.781,2.432-0.698,5.344-2.582,6.212
	c0.01-0.344,0.421-0.471,0.628-0.698c0.598-0.654,1.247-1.844,1.257-3.141c0.021-2.748-2.016-4.6-4.188-5.234
	c-0.67,3.909,1.04,9.712-0.628,12.703c-0.558,1-2.267,2.082-3.978,1.535C0.486,18.256,0.008,17.359,0,16.548
	c-0.024-2.379,3.23-4.219,5.305-2.861c0.209-4.397-0.07-9.283,0.14-13.68C5.467,0.006,5.49,0.006,5.514,0.006z"/>
</svg>
