<?xml version="1.0" encoding="utf-8"?>
<!-- Generator: Adobe Illustrator 15.1.0, SVG Export Plug-In  -->
<!DOCTYPE svg PUBLIC "-//W3C//DTD SVG 1.1//EN" "http://www.w3.org/Graphics/SVG/1.1/DTD/svg11.dtd" [
	<!ENTITY ns_flows "http://ns.adobe.com/Flows/1.0/">
]>
<svg version="1.1"
	 xmlns="http://www.w3.org/2000/svg" xmlns:xlink="http://www.w3.org/1999/xlink" xmlns:a="http://ns.adobe.com/AdobeSVGViewerExtensions/3.0/"
	 x="0px" y="0px" width="177px" height="55px" viewBox="-1.426 -1.396 177 55"
	 overflow="visible" enable-background="new -1.426 -1.396 177 55" xml:space="preserve">
<defs>
</defs>
<path opacity="0.05" d="M38.204,52.323c-1.45,0-2.896-0.355-4.184-1.031l-6.968-3.662l-6.964,3.658
	c-1.29,0.678-2.738,1.035-4.188,1.035c-1.914,0-3.744-0.594-5.292-1.721c-2.791-2.025-4.163-5.396-3.579-8.799l1.329-7.756
	l-5.634-5.491c-2.47-2.409-3.343-5.944-2.278-9.226c1.067-3.283,3.851-5.631,7.265-6.127l7.787-1.131l3.481-7.055
	C20.508,1.922,23.601,0,27.052,0s6.543,1.922,8.071,5.018l3.482,7.055l7.785,1.131c3.415,0.497,6.2,2.844,7.267,6.125
	c1.065,3.283,0.192,6.818-2.277,9.226l-5.634,5.493l1.33,7.756c0.582,3.4-0.79,6.773-3.581,8.801
	C41.945,51.729,40.116,52.323,38.204,52.323z"/>
<path opacity="0.05" d="M38.204,51.323c-1.289,0-2.576-0.316-3.72-0.916l-7.432-3.908l-7.43,3.904
	c-1.146,0.602-2.433,0.92-3.722,0.92c-1.7,0-3.327-0.527-4.703-1.529c-2.481-1.801-3.701-4.799-3.182-7.822l1.418-8.273L3.422,27.84
	c-2.196-2.142-2.971-5.284-2.024-8.201c0.949-2.918,3.423-5.005,6.458-5.446l8.307-1.207l3.714-7.526
	C21.235,2.709,23.984,1,27.052,1s5.816,1.709,7.174,4.46l3.714,7.526l8.306,1.207c3.036,0.441,5.511,2.528,6.459,5.445
	c0.947,2.918,0.171,6.061-2.024,8.201l-6.011,5.859l1.419,8.273c0.518,3.023-0.702,6.021-3.183,7.824
	C41.53,50.795,39.904,51.323,38.204,51.323z"/>
<path opacity="0.05" d="M38.204,50.323c-1.127,0-2.253-0.277-3.255-0.803l-7.896-4.15l-7.895,4.148
	c-1.002,0.527-2.128,0.805-3.257,0.805c-1.488,0-2.911-0.463-4.115-1.338C9.613,47.409,8.546,44.786,9,42.141l1.507-8.792
	L4.12,27.124c-1.921-1.874-2.6-4.624-1.771-7.176c0.83-2.553,2.996-4.379,5.651-4.765l8.827-1.282l3.947-7.998
	C21.962,3.495,24.368,2,27.052,2c2.684,0,5.089,1.495,6.277,3.902l3.947,7.998l8.826,1.282c2.656,0.386,4.822,2.212,5.652,4.764
	c0.829,2.554,0.15,5.303-1.771,7.176l-6.387,6.226l1.508,8.792c0.453,2.645-0.614,5.268-2.785,6.846
	C41.114,49.862,39.691,50.323,38.204,50.323z"/>
<path opacity="0.1" d="M38.204,49.323c-0.967,0-1.932-0.238-2.791-0.688l-8.361-4.396l-8.36,4.395
	c-0.859,0.451-1.824,0.689-2.792,0.689c-1.275,0-2.495-0.396-3.527-1.146c-1.861-1.352-2.776-3.6-2.387-5.867L11.582,33
	l-6.764-6.593C3.171,24.801,2.59,22.444,3.3,20.256c0.711-2.188,2.567-3.753,4.844-4.084l9.347-1.358l4.18-8.47
	C22.689,4.282,24.751,3,27.052,3s4.362,1.282,5.38,3.345l4.18,8.47l9.347,1.358c2.277,0.331,4.133,1.896,4.844,4.083
	c0.71,2.188,0.129,4.545-1.518,6.151L42.521,33l1.597,9.309c0.389,2.268-0.526,4.516-2.387,5.869
	C40.699,48.926,39.479,49.323,38.204,49.323z"/>
<path fill="#FFFFFF" d="M37.204,47.323c-0.796,0-1.595-0.189-2.326-0.574l-8.826-4.639l-8.826,4.639
	c-0.731,0.385-1.53,0.574-2.326,0.574c-1.037,0-2.068-0.322-2.939-0.955c-1.54-1.117-2.311-3.014-1.989-4.889l1.686-9.828
	l-7.14-6.96c-1.363-1.329-1.853-3.315-1.265-5.126c0.588-1.81,2.153-3.129,4.037-3.403l9.867-1.434l4.413-8.941
	C22.41,4.081,24.148,3,26.052,3s3.642,1.081,4.484,2.787l4.413,8.941l9.867,1.434c1.884,0.274,3.448,1.593,4.037,3.403
	c0.588,1.811,0.098,3.797-1.265,5.126l-7.14,6.96l1.686,9.828c0.322,1.875-0.45,3.771-1.989,4.889
	C39.272,47,38.24,47.323,37.204,47.323z"/>
<polygon fill="#FFFFFF" points="26.052,8 31.628,19.299 44.097,21.11 35.074,29.905 37.204,42.323 26.052,36.46 14.899,42.323 
	17.029,29.905 8.007,21.11 20.476,19.299 "/>
<polygon fill="#FBBB0F" points="26.052,8 31.628,19.299 44.097,21.11 35.074,29.905 37.204,42.323 26.052,36.46 14.899,42.323 
	17.029,29.905 8.007,21.11 20.476,19.299 "/>
<path opacity="0.05" d="M98.204,52.323c-1.45,0-2.896-0.355-4.185-1.031l-6.968-3.662l-6.965,3.658
	c-1.289,0.678-2.737,1.035-4.187,1.035c-1.914,0-3.744-0.594-5.292-1.721c-2.791-2.025-4.163-5.396-3.579-8.799l1.329-7.756
	l-5.634-5.491c-2.47-2.409-3.343-5.944-2.278-9.226c1.067-3.283,3.851-5.631,7.265-6.127l7.787-1.131l3.48-7.055
	C80.509,1.922,83.601,0,87.052,0s6.543,1.922,8.07,5.018l3.482,7.055l7.785,1.131c3.415,0.497,6.199,2.844,7.268,6.125
	c1.064,3.283,0.191,6.818-2.277,9.226l-5.635,5.493l1.33,7.756c0.582,3.4-0.789,6.773-3.58,8.801
	C101.944,51.729,100.116,52.323,98.204,52.323z"/>
<path opacity="0.05" d="M98.204,51.323c-1.289,0-2.576-0.316-3.721-0.916l-7.432-3.908l-7.43,3.904
	c-1.146,0.602-2.433,0.92-3.722,0.92c-1.7,0-3.327-0.527-4.703-1.529c-2.481-1.801-3.701-4.799-3.182-7.822l1.418-8.273
	l-6.011-5.858c-2.196-2.142-2.971-5.284-2.024-8.201c0.949-2.918,3.423-5.005,6.458-5.446l8.307-1.207l3.714-7.526
	C81.235,2.709,83.984,1,87.052,1s5.816,1.709,7.174,4.46l3.715,7.526l8.306,1.207c3.036,0.441,5.511,2.528,6.46,5.445
	c0.946,2.918,0.171,6.061-2.024,8.201l-6.011,5.859l1.419,8.273c0.518,3.023-0.702,6.021-3.183,7.824
	C101.53,50.795,99.903,51.323,98.204,51.323z"/>
<path opacity="0.05" d="M98.204,50.323c-1.128,0-2.254-0.277-3.256-0.803l-7.896-4.15l-7.895,4.148
	c-1.003,0.527-2.129,0.805-3.257,0.805c-1.488,0-2.911-0.463-4.115-1.338c-2.171-1.576-3.238-4.199-2.784-6.844l1.507-8.792
	l-6.388-6.226c-1.921-1.874-2.6-4.624-1.771-7.176c0.83-2.553,2.996-4.379,5.651-4.765l8.827-1.282l3.947-7.998
	C81.962,3.495,84.368,2,87.052,2s5.09,1.495,6.277,3.902l3.947,7.998l8.826,1.282c2.656,0.386,4.822,2.212,5.652,4.764
	c0.828,2.554,0.149,5.303-1.771,7.176l-6.387,6.226l1.508,8.792c0.453,2.645-0.614,5.268-2.785,6.846
	C101.114,49.862,99.69,50.323,98.204,50.323z"/>
<path opacity="0.1" d="M98.204,49.323c-0.968,0-1.933-0.238-2.791-0.688l-8.361-4.396l-8.36,4.395
	c-0.859,0.451-1.824,0.689-2.792,0.689c-1.275,0-2.495-0.396-3.527-1.146c-1.861-1.352-2.776-3.6-2.387-5.867L71.582,33
	l-6.764-6.593c-1.647-1.606-2.229-3.963-1.518-6.151c0.711-2.188,2.567-3.753,4.844-4.084l9.347-1.358l4.18-8.47
	C82.689,4.282,84.751,3,87.052,3s4.362,1.282,5.381,3.345l4.18,8.47l9.347,1.358c2.276,0.331,4.133,1.896,4.845,4.083
	c0.71,2.188,0.129,4.545-1.519,6.151L102.521,33l1.597,9.309c0.389,2.268-0.525,4.516-2.387,5.869
	C100.698,48.926,99.479,49.323,98.204,49.323z"/>
<path fill="#FFFFFF" d="M97.204,47.323c-0.797,0-1.596-0.189-2.326-0.574l-8.826-4.639l-8.826,4.639
	c-0.73,0.385-1.53,0.574-2.326,0.574c-1.037,0-2.068-0.322-2.939-0.955c-1.54-1.117-2.311-3.014-1.989-4.889l1.686-9.828l-7.14-6.96
	c-1.363-1.329-1.853-3.315-1.265-5.126c0.588-1.81,2.153-3.129,4.037-3.403l9.867-1.434l4.412-8.941C82.41,4.081,84.148,3,86.052,3
	s3.642,1.081,4.484,2.787l4.412,8.941l9.867,1.434c1.884,0.274,3.448,1.593,4.037,3.403c0.588,1.811,0.098,3.797-1.266,5.126
	l-7.141,6.96l1.686,9.828c0.322,1.875-0.449,3.771-1.988,4.889C99.272,47,98.24,47.323,97.204,47.323z"/>
<polygon fill="#FFFFFF" points="86.052,8 91.628,19.299 104.097,21.11 95.074,29.905 97.204,42.323 86.052,36.46 74.899,42.323 
	77.029,29.905 68.007,21.11 80.476,19.299 "/>
<polygon fill="#FBBB0F" points="86.052,8 91.628,19.299 104.097,21.11 95.074,29.905 97.204,42.323 86.052,36.46 74.899,42.323 
	77.029,29.905 68.007,21.11 80.476,19.299 "/>
<path opacity="0.05" d="M158.204,52.323c-1.45,0-2.896-0.355-4.185-1.031l-6.968-3.662l-6.965,3.658
	c-1.289,0.678-2.737,1.035-4.188,1.035c-1.913,0-3.743-0.594-5.291-1.721c-2.791-2.025-4.163-5.396-3.578-8.799l1.328-7.756
	l-5.634-5.491c-2.47-2.409-3.343-5.944-2.278-9.226c1.068-3.283,3.852-5.631,7.266-6.127l7.787-1.131l3.48-7.055
	C140.509,1.922,143.601,0,147.052,0s6.543,1.922,8.07,5.018l3.482,7.055l7.785,1.131c3.415,0.497,6.199,2.844,7.268,6.125
	c1.064,3.283,0.191,6.818-2.277,9.226l-5.635,5.493l1.33,7.756c0.582,3.4-0.789,6.773-3.58,8.801
	C161.944,51.729,160.116,52.323,158.204,52.323z"/>
<path opacity="0.05" d="M158.204,51.323c-1.289,0-2.576-0.316-3.721-0.916l-7.432-3.908l-7.43,3.904
	c-1.146,0.602-2.433,0.92-3.723,0.92c-1.699,0-3.326-0.527-4.703-1.529c-2.48-1.801-3.7-4.799-3.182-7.822l1.418-8.273l-6.01-5.858
	c-2.196-2.142-2.972-5.284-2.025-8.201c0.949-2.918,3.424-5.005,6.459-5.446l8.307-1.207l3.714-7.526
	c1.358-2.751,4.107-4.46,7.175-4.46s5.816,1.709,7.174,4.46l3.715,7.526l8.306,1.207c3.036,0.441,5.511,2.528,6.46,5.445
	c0.946,2.918,0.171,6.061-2.024,8.201l-6.011,5.859l1.419,8.273c0.518,3.023-0.702,6.021-3.183,7.824
	C161.53,50.795,159.903,51.323,158.204,51.323z"/>
<path opacity="0.05" d="M158.204,50.323c-1.128,0-2.254-0.277-3.256-0.803l-7.896-4.15l-7.895,4.148
	c-1.003,0.527-2.129,0.805-3.258,0.805c-1.487,0-2.91-0.463-4.115-1.338c-2.171-1.576-3.238-4.199-2.783-6.844l1.507-8.792
	l-6.388-6.226c-1.922-1.874-2.6-4.624-1.771-7.176c0.83-2.553,2.996-4.379,5.651-4.765l8.827-1.282l3.947-7.998
	C141.962,3.495,144.368,2,147.052,2s5.09,1.495,6.277,3.902l3.947,7.998l8.826,1.282c2.656,0.386,4.822,2.212,5.652,4.764
	c0.828,2.554,0.149,5.303-1.771,7.176l-6.387,6.226l1.508,8.792c0.453,2.645-0.614,5.268-2.785,6.846
	C161.114,49.862,159.69,50.323,158.204,50.323z"/>
<path opacity="0.1" d="M158.204,49.323c-0.968,0-1.933-0.238-2.791-0.688l-8.361-4.396l-8.36,4.395
	c-0.859,0.451-1.824,0.689-2.792,0.689c-1.275,0-2.494-0.396-3.527-1.146c-1.861-1.352-2.775-3.6-2.387-5.867L131.582,33
	l-6.764-6.593c-1.647-1.606-2.229-3.963-1.519-6.151c0.712-2.188,2.568-3.753,4.844-4.084l9.348-1.358l4.18-8.47
	C142.689,4.282,144.751,3,147.052,3s4.362,1.282,5.381,3.345l4.18,8.47l9.347,1.358c2.276,0.331,4.133,1.896,4.845,4.083
	c0.71,2.188,0.129,4.545-1.519,6.151L162.521,33l1.597,9.309c0.389,2.268-0.525,4.516-2.387,5.869
	C160.698,48.926,159.479,49.323,158.204,49.323z"/>
<path fill="#FFFFFF" d="M157.204,47.323c-0.797,0-1.596-0.189-2.326-0.574l-8.826-4.639l-8.826,4.639
	c-0.73,0.385-1.529,0.574-2.326,0.574c-1.036,0-2.068-0.322-2.939-0.955c-1.539-1.117-2.311-3.014-1.988-4.889l1.686-9.828
	l-7.141-6.96c-1.363-1.329-1.854-3.315-1.266-5.126c0.589-1.81,2.153-3.129,4.037-3.403l9.867-1.434l4.412-8.941
	C142.41,4.081,144.148,3,146.052,3s3.642,1.081,4.484,2.787l4.412,8.941l9.867,1.434c1.884,0.274,3.448,1.593,4.037,3.403
	c0.588,1.811,0.098,3.797-1.266,5.126l-7.141,6.96l1.686,9.828c0.322,1.875-0.449,3.771-1.988,4.889
	C159.272,47,158.24,47.323,157.204,47.323z"/>
<polygon fill="#FFFFFF" points="146.052,8 151.628,19.299 164.097,21.11 155.074,29.905 157.204,42.323 146.052,36.46 
	134.899,42.323 137.029,29.905 128.007,21.11 140.476,19.299 "/>
<polygon fill="#FBBB0F" points="146.052,8 151.628,19.299 164.097,21.11 155.074,29.905 157.204,42.323 146.052,36.46 
	134.899,42.323 137.029,29.905 128.007,21.11 140.476,19.299 "/>
</svg>
