<?xml version="1.0" encoding="utf-8"?>
<!-- Generator: Adobe Illustrator 15.1.0, SVG Export Plug-In  -->
<!DOCTYPE svg PUBLIC "-//W3C//DTD SVG 1.1//EN" "http://www.w3.org/Graphics/SVG/1.1/DTD/svg11.dtd" [
	<!ENTITY ns_flows "http://ns.adobe.com/Flows/1.0/">
]>
<svg version="1.1"
	 xmlns="http://www.w3.org/2000/svg" xmlns:xlink="http://www.w3.org/1999/xlink" xmlns:a="http://ns.adobe.com/AdobeSVGViewerExtensions/3.0/"
	 x="0px" y="0px" width="177px" height="55px" viewBox="-1.426 -1.396 177 55"
	 overflow="visible" enable-background="new -1.426 -1.396 177 55" xml:space="preserve">
<defs>
</defs>
<polygon opacity="0.15" fill="#236DAF" points="26.052,8 31.628,19.299 44.097,21.11 35.074,29.905 37.204,42.323 26.052,36.46 
	14.899,42.323 17.029,29.905 8.007,21.11 20.476,19.299 "/>
<polygon opacity="0.15" fill="#236DAF" points="86.052,8 91.628,19.299 104.097,21.11 95.074,29.905 97.204,42.323 86.052,36.46 
	74.899,42.323 77.029,29.905 68.007,21.11 80.476,19.299 "/>
<polygon opacity="0.15" fill="#236DAF" points="146.052,8 151.628,19.299 164.097,21.11 155.074,29.905 157.204,42.323 
	146.052,36.46 134.899,42.323 137.029,29.905 128.007,21.11 140.476,19.299 "/>
<path opacity="0" fill="#236DAF" d="M38.204,52.323c-1.45,0-2.896-0.355-4.184-1.031l-6.968-3.662l-6.964,3.658
	c-1.29,0.678-2.738,1.035-4.188,1.035c-1.914,0-3.744-0.594-5.292-1.721c-2.791-2.025-4.163-5.396-3.579-8.799l1.329-7.756
	l-5.634-5.491c-2.47-2.409-3.343-5.944-2.278-9.226c1.067-3.283,3.851-5.631,7.265-6.127l7.787-1.131l3.481-7.055
	C20.508,1.922,23.601,0,27.052,0s6.543,1.922,8.071,5.018l3.482,7.055l7.785,1.131c3.415,0.497,6.2,2.844,7.267,6.125
	c1.065,3.283,0.192,6.818-2.277,9.226l-5.634,5.493l1.33,7.756c0.582,3.4-0.79,6.773-3.581,8.801
	C41.945,51.729,40.116,52.323,38.204,52.323z"/>
<path opacity="0" fill="#236DAF" d="M98.204,52.323c-1.45,0-2.896-0.355-4.185-1.031l-6.968-3.662l-6.965,3.658
	c-1.289,0.678-2.737,1.035-4.187,1.035c-1.914,0-3.744-0.594-5.292-1.721c-2.791-2.025-4.163-5.396-3.579-8.799l1.329-7.756
	l-5.634-5.491c-2.47-2.409-3.343-5.944-2.278-9.226c1.067-3.283,3.851-5.631,7.265-6.127l7.787-1.131l3.48-7.055
	C80.509,1.922,83.601,0,87.052,0s6.543,1.922,8.07,5.018l3.482,7.055l7.785,1.131c3.415,0.497,6.199,2.844,7.268,6.125
	c1.064,3.283,0.191,6.818-2.277,9.226l-5.635,5.493l1.33,7.756c0.582,3.4-0.789,6.773-3.58,8.801
	C101.944,51.729,100.116,52.323,98.204,52.323z"/>
<path opacity="0" fill="#236DAF" d="M158.204,52.323c-1.45,0-2.896-0.355-4.185-1.031l-6.968-3.662l-6.965,3.658
	c-1.289,0.678-2.737,1.035-4.188,1.035c-1.913,0-3.743-0.594-5.291-1.721c-2.791-2.025-4.163-5.396-3.578-8.799l1.328-7.756
	l-5.634-5.491c-2.47-2.409-3.343-5.944-2.278-9.226c1.068-3.283,3.852-5.631,7.266-6.127l7.787-1.131l3.48-7.055
	C140.509,1.922,143.601,0,147.052,0s6.543,1.922,8.07,5.018l3.482,7.055l7.785,1.131c3.415,0.497,6.199,2.844,7.268,6.125
	c1.064,3.283,0.191,6.818-2.277,9.226l-5.635,5.493l1.33,7.756c0.582,3.4-0.789,6.773-3.58,8.801
	C161.944,51.729,160.116,52.323,158.204,52.323z"/>
</svg>
