<?xml version="1.0" encoding="utf-8"?>
<!-- Generator: Adobe Illustrator 18.1.1, SVG Export Plug-In . SVG Version: 6.00 Build 0)  -->
<svg version="1.1"
	 id="svg2" xmlns:dc="http://purl.org/dc/elements/1.1/" xmlns:svg="http://www.w3.org/2000/svg" xmlns:inkscape="http://www.inkscape.org/namespaces/inkscape" xmlns:sodipodi="http://sodipodi.sourceforge.net/DTD/sodipodi-0.dtd" xmlns:cc="http://creativecommons.org/ns#" xmlns:rdf="http://www.w3.org/1999/02/22-rdf-syntax-ns#" sodipodi:docname="download-pdf-blue.svg" inkscape:version="0.48.2 r9819"
	 xmlns="http://www.w3.org/2000/svg" xmlns:xlink="http://www.w3.org/1999/xlink" x="0px" y="0px" width="380.5px" height="278.5px"
	 viewBox="-279.1 236.3 380.5 278.5" enable-background="new -279.1 236.3 380.5 278.5" xml:space="preserve">
<sodipodi:namedview  bordercolor="#666666" id="base" inkscape:cx="143.45308" inkscape:cy="341.91812" pagecolor="#ffffff" inkscape:zoom="1" borderopacity="1.0" showgrid="false" inkscape:pageopacity="0.0" inkscape:window-height="1058" inkscape:document-units="px" inkscape:window-width="1858" inkscape:window-maximized="1" inkscape:current-layer="layer1" inkscape:window-y="-8" inkscape:pageshadow="2" inkscape:window-x="-8">
	</sodipodi:namedview>
<g>
	<path id="path4043" inkscape:connector-curvature="0" fill="#E6E6E6" d="M49.1,236.3v33.1c0,1.3,0.1,2.6,0.4,3.9
		c0.3,1.2,0.6,2.4,1.1,3.6c0.5,1.1,1.1,2.3,1.8,3.3c0.7,1,1.4,2,2.3,2.8c0.9,0.9,1.8,1.6,2.8,2.3s2.1,1.3,3.3,1.8
		c1.1,0.5,2.3,0.9,3.6,1.1c1.2,0.3,2.5,0.4,3.9,0.4h33.1L49.1,236.3z"/>
</g>
<g>
	<polygon fill="#FFFFFF" points="8.2,394.2 36.5,365.8 20.6,365.8 20.6,340 -4.3,340 -4.3,365.8 -20.2,365.8 	"/>
	<rect x="-29.6" y="402.3" fill="#FFFFFF" width="75.5" height="6"/>
</g>
<polygon fill="#FFFFFF" points="49.1,236.3 101.4,288.6 101.4,236.3 "/>
</svg>
