<?xml version="1.0" encoding="utf-8"?>
<!-- Generator: Adobe Illustrator 18.1.1, SVG Export Plug-In . SVG Version: 6.00 Build 0)  -->
<svg version="1.1" xmlns="http://www.w3.org/2000/svg" xmlns:xlink="http://www.w3.org/1999/xlink" x="0px" y="0px" width="60px"
	 height="60px" viewBox="0 0 60 60" enable-background="new 0 0 60 60" xml:space="preserve">
<g id="Warstwa_1">
</g>
<g id="Warstwa_3">
	<path fill="#941B80" d="M30,44.9c-5.6,0-10.1-4.5-10.1-10.1c0-5.6,10.1-19.8,10.1-19.8s10.1,14.2,10.1,19.8
		C40.1,40.4,35.6,44.9,30,44.9z"/>
	<path fill="#FFFFFF" d="M30,15.2c0,0,10.1,14.2,10.1,19.8c0,5.6-4.5,10.1-10.1,10.1c-5.6,0-10.1-4.5-10.1-10.1
		C19.9,29.4,30,15.2,30,15.2 M30,12.6l-1.2,1.7C27.7,15.9,18.4,29.1,18.4,35c0,6.4,5.2,11.6,11.6,11.6c6.4,0,11.6-5.2,11.6-11.6
		c0-5.9-9.3-19.2-10.4-20.7L30,12.6L30,12.6z"/>
</g>
</svg>
