<?xml version="1.0" encoding="utf-8"?>
<!-- Generator: Adobe Illustrator 18.1.1, SVG Export Plug-In . SVG Version: 6.00 Build 0)  -->
<svg version="1.1" xmlns="http://www.w3.org/2000/svg" xmlns:xlink="http://www.w3.org/1999/xlink" x="0px" y="0px" width="90px"
	 height="120px" viewBox="0 0 90 120" enable-background="new 0 0 90 120" xml:space="preserve">
<g id="Warstwa_1">
</g>
<g id="Warstwa_3">
	<g id="JCOxti_4_">
		<g>
			<path fill="#FFFFFF" d="M40.3,36.2c-0.6,0-1.1,0-1.7,0c-0.4,0-0.5-0.1-0.4-0.5c1.1-4.1,5.7-7.1,9.9-6.5c4.4,0.6,7.6,3.6,8.3,7.9
				c0.9,5-2.8,10.1-7.8,10.8c-2.8,0.4-5.3-0.3-7.5-2c-0.3-0.3-0.5-0.3-0.8,0.1c-0.7,1-1.5,1.9-2.3,2.9c-0.3,0.3-0.2,0.5,0.1,0.8
				c4.7,3.9,11.7,4.2,16.8,0.7c6.9-4.7,8.3-14.3,2.9-20.7c-3.8-4.5-8.7-6.1-14.4-4.7c-5.5,1.4-8.9,5-10.3,10.5
				c-0.2,0.6-0.4,0.8-1,0.8c-1-0.1-2,0-3,0c-0.3,0-0.6,0-0.7,0.3c-0.1,0.3,0.1,0.4,0.2,0.6c2,2.5,4,4.9,6,7.4c0.5,0.7,1,0.6,1.5,0
				c2-2.4,3.9-4.8,5.9-7.3c0.2-0.2,0.5-0.4,0.3-0.7c-0.2-0.3-0.5-0.2-0.8-0.2C41.3,36.2,40.8,36.2,40.3,36.2z"/>
		</g>
	</g>
</g>
</svg>
