<?xml version="1.0" encoding="utf-8"?>
<!-- Generator: Adobe Illustrator 18.1.1, SVG Export Plug-In . SVG Version: 6.00 Build 0)  -->
<svg version="1.1" xmlns="http://www.w3.org/2000/svg" xmlns:xlink="http://www.w3.org/1999/xlink" x="0px" y="0px" width="44.4px"
	 height="44.4px" viewBox="0 0 44.4 44.4" enable-background="new 0 0 44.4 44.4" xml:space="preserve">
<g id="Warstwa_1">
</g>
<g id="Warstwa_3">
	<g>
		<circle fill="#FAC900" cx="22.2" cy="22.2" r="22.2"/>
		<circle fill="#FFED33" cx="22.2" cy="22.2" r="17.4"/>
		<g>
			<path fill="#F9B200" d="M22.2,25c-4.5,0-8.6-0.9-11.7-2.5c0.8,5.8,5.8,10.3,11.7,10.3c5.9,0,10.9-4.5,11.7-10.3
				C30.9,24.1,26.8,25,22.2,25z"/>
			<g>
				<path fill="#D3AA00" d="M15.8,16.2c1.5-0.3,2.9-0.2,4,0.1c-0.6-1.8-2.5-2.9-4.4-2.6c-1.9,0.3-3.3,2.1-3.2,4
					C13,17,14.3,16.5,15.8,16.2z"/>
				<path fill="#D3AA00" d="M28.6,16.2c-1.5-0.3-2.9-0.2-4,0.1c0.6-1.8,2.5-2.9,4.4-2.6c1.9,0.3,3.3,2.1,3.2,4
					C31.4,17,30.1,16.5,28.6,16.2z"/>
			</g>
		</g>
	</g>
</g>
</svg>
