<?xml version="1.0" encoding="utf-8"?>
<!-- Generator: Adobe Illustrator 18.1.0, SVG Export Plug-In . SVG Version: 6.00 Build 0)  -->
<!DOCTYPE svg PUBLIC "-//W3C//DTD SVG 1.1//EN" "http://www.w3.org/Graphics/SVG/1.1/DTD/svg11.dtd" [
	<!ENTITY ns_extend "http://ns.adobe.com/Extensibility/1.0/">
	<!ENTITY ns_ai "http://ns.adobe.com/AdobeIllustrator/10.0/">
	<!ENTITY ns_graphs "http://ns.adobe.com/Graphs/1.0/">
	<!ENTITY ns_vars "http://ns.adobe.com/Variables/1.0/">
	<!ENTITY ns_imrep "http://ns.adobe.com/ImageReplacement/1.0/">
	<!ENTITY ns_sfw "http://ns.adobe.com/SaveForWeb/1.0/">
	<!ENTITY ns_custom "http://ns.adobe.com/GenericCustomNamespace/1.0/">
	<!ENTITY ns_adobe_xpath "http://ns.adobe.com/XPath/1.0/">
	<!ENTITY st0 "fill:#FFFFFF;">
]>
<svg version="1.1" id="Warstwa_1" xmlns:x="&ns_extend;" xmlns:i="&ns_ai;" xmlns:graph="&ns_graphs;"
	 xmlns="http://www.w3.org/2000/svg" xmlns:xlink="http://www.w3.org/1999/xlink" x="0px" y="0px" width="40px" height="40px"
	 viewBox="0 0 40 40" style="enable-background:new 0 0 40 40;" xml:space="preserve">
<metadata>
	<sfw  xmlns="&ns_sfw;">
		<slices></slices>
		<sliceSourceBounds  width="26.3" height="23.5" x="386.9" y="-111.7" bottomLeftOrigin="true"></sliceSourceBounds>
	</sfw>
</metadata>
<g id="ynGGa2_1_">
	<g>
		<path style="&st0;" d="M6.9,24c0-2,0-4.1,0-6.1c0-0.1,0.1-0.2,0.1-0.4c0.4-1.6,1.4-2.6,3-3.2c0.8-0.3,1.6-0.2,2.3-0.2
			c0.3,0,0.3,0,0.3-0.3c0-1.3,0-2.6,0-4c0-0.9,0.6-1.5,1.5-1.5c0.5,0,0.9,0,1.4,0c2.7,0,5.5,0,8.2,0c0.4,0,0.8,0.2,1.1,0.5
			c0.6,0.6,1.2,1.2,1.8,1.8c0.5,0.4,0.7,1,0.7,1.6c0,0.5,0,1,0,1.6c0,0.4,0,0.4,0.4,0.4c0.7,0,1.4,0,2,0c1.2,0,2.1,0.6,2.7,1.5
			c0.4,0.6,0.6,1.4,0.7,2.1c0,2.1,0,4.1,0,6.2c-0.3,0.8-0.8,1.1-1.5,1.1c-0.8,0-1.7,0-2.5,0c-0.3,0-0.4,0-0.4-0.4c0-1.5,0-2.9,0-4.4
			c0-0.3,0-0.4-0.4-0.4c-0.5,0-1,0-1.5,0c-1.1,0-2.2,0-3.4,0c-1.3,0-2.5,0-3.8,0c-1.1,0-2.3,0-3.4,0c-1.5,0-3.1,0-4.6,0
			c-0.4,0-0.4,0-0.4,0.4c0,1.5,0,3,0,4.4c0,0.3,0,0.3-0.3,0.3c-0.8,0-1.6,0-2.4,0C7.6,25.1,7.2,24.8,6.9,24z M19.9,14.1
			c0.8,0,1.6,0,2.5,0c1,0,2.1,0,3.1,0c0.2,0,0.3,0,0.3-0.2c0-0.6,0-1.2,0-1.8c0-0.1,0-0.2-0.1-0.3c-0.6-0.6-1.2-1.2-1.8-1.8
			c-0.1-0.1-0.2-0.1-0.4-0.1c-1.5,0-2.9,0-4.4,0c-1.5,0-3.1,0-4.6,0c-0.2,0-0.3,0.1-0.3,0.3c0,1.2,0,2.5,0,3.7
			c0,0.2,0.1,0.3,0.3,0.3C16.3,14.1,18.1,14.1,19.9,14.1z M27.4,17.1c0,0.8,0.6,1.4,1.5,1.4c0.8,0,1.4-0.7,1.4-1.4
			c0-0.8-0.7-1.4-1.5-1.4C27.9,15.7,27.3,16.3,27.4,17.1z"/>
		<path style="&st0;" d="M19.9,21.4c2.3,0,4.7,0,7,0c0.3,0,0.3,0.1,0.3,0.3c0,2.3,0,4.7,0,7c0,0.5,0,1.1,0,1.6
			c-0.1,0.8-0.7,1.3-1.5,1.3c-1.2,0-2.4,0-3.6,0c-2.7,0-5.3,0-8,0c-0.7,0-1.4-0.5-1.5-1.2c0-0.2,0-0.5,0-0.7c0-1.4,0-2.7,0-4.1
			c0-1.2,0-2.5,0-3.7c0-0.7,0-0.7,0.7-0.7C15.5,21.4,17.7,21.4,19.9,21.4z M19.9,28C19.9,28,19.9,28,19.9,28c0.6,0,1.3,0,1.9,0
			c1.1,0,2.1,0,3.2,0c0.4,0,0.7-0.3,0.7-0.7c0-0.3-0.2-0.7-0.6-0.7c-0.1,0-0.3,0-0.4,0c-1,0-2,0-2.9,0c-0.9,0-1.8,0-2.6,0
			c-0.8,0-1.6,0-2.4,0c-0.7,0-1.4,0-2,0c-0.3,0-0.6,0.3-0.6,0.6c0,0.5,0.3,0.7,0.8,0.7C16.6,28,18.2,28,19.9,28z M19.9,25.1
			c1.7,0,3.4,0,5.1,0c0.4,0,0.7-0.3,0.7-0.7c0-0.4-0.3-0.7-0.7-0.7c-1.1,0-2.2,0-3.2,0c-2,0-3.9,0-5.9,0c-0.4,0-0.8,0-1.2,0
			c-0.4,0-0.6,0.3-0.6,0.6c0,0.4,0.3,0.8,0.7,0.8C16.5,25.1,18.2,25.1,19.9,25.1z"/>
	</g>
</g>
</svg>
